Results
version=1
nRows=13
nColumns=27
inDegrees=yes
endheader
time	r_x	r_y	r_z	t_x	t_y	t_z	sternoclavicular_r2	sternoclavicular_r3	unrotscap_r3	unrotscap_r2	acromioclavicular_r2	acromioclavicular_r3	acromioclavicular_r1	unrothum_r1	unrothum_r3	unrothum_r2	elv_angle	shoulder_elv	shoulder1_r2	shoulder_rot	elbow_flexion	pro_sup	deviation	flexion	wrist_hand_r1	wrist_hand_r3
      2.50000000	     90.00026349	      0.00039132	      9.99993417	     -0.35453667	      0.35620016	      0.29563445	    -11.53345646	      4.88487856	     -4.88542730	     11.53410468	     -2.33503409	     18.87341103	      8.48379255	     -8.48334743	    -18.87353864	      2.33554002	     72.38454896	     47.66023972	    -72.38441614	      1.50444401	     25.87284176	     43.30581730	      0.00007877	     -0.00000776	     -0.00004377	     -0.00001184
      2.50500000	     90.00021967	      0.00031405	      9.99997042	     -0.35454120	      0.35619583	      0.29563562	    -11.53351966	      4.88491802	     -4.88539964	     11.53404054	     -2.33509801	     18.87343326	      8.48376673	     -8.48335684	    -18.87349554	      2.33547502	     72.38455872	     47.66026562	    -72.38449468	      1.50447657	     25.87286151	     43.30585979	     -0.00015078	     -0.00000776	      0.00007793	     -0.00001184
      2.51000000	     90.00024339	      0.00034040	      9.99995338	     -0.35454499	      0.35619548	      0.29563605	    -11.53349602	      4.88489592	     -4.88542855	     11.53408435	     -2.33505113	     18.87341070	      8.48379356	     -8.48333343	    -18.87352122	      2.33552249	     72.38464033	     47.66023891	    -72.38449723	      1.50450444	     25.87287108	     43.30588403	      0.00010721	     -0.00000776	     -0.00005876	     -0.00001184
      2.51500000	     90.00022734	      0.00032363	      9.99996758	     -0.35454770	      0.35619280	      0.29563677	    -11.53351067	      4.88490926	     -4.88541233	     11.53405673	     -2.33508029	     18.87342533	      8.48377983	     -8.48334393	    -18.87350230	      2.33549269	     72.38464463	     47.66025490	    -72.38455380	      1.50452672	     25.87288409	     43.30591211	     -0.00009974	     -0.00000776	      0.00005094	     -0.00001184
      2.52000000	     90.00025623	      0.00035752	      9.99994649	     -0.35455281	      0.35619236	      0.29563733	    -11.53347906	      4.88488184	     -4.88544477	     11.53410712	     -2.33502465	     18.87339669	      8.48380938	     -8.48331677	    -18.87353054	      2.33554841	     72.38474248	     47.66022296	    -72.38457463	      1.50456607	     25.87289764	     43.30594599	      0.00013957	     -0.00000773	     -0.00007593	     -0.00001181
      2.52500000	     90.00022239	      0.00034218	      9.99998245	     -0.35455531	      0.35619132	      0.29563998	    -11.53349225	      4.88490161	     -4.88543757	     11.53407668	     -2.33505850	     18.87342335	      8.48381402	     -8.48330571	    -18.87349540	      2.33551297	     72.38474588	     47.66026378	    -72.38464000	      1.50458271	     25.87292649	     43.30596525	     -0.00010031	     -0.00000776	      0.00005112	     -0.00001189
      2.53000000	     90.00024063	      0.00036917	      9.99995627	     -0.35455786	      0.35619157	      0.29564094	    -11.53346914	      4.88488891	     -4.88544993	     11.53410627	     -2.33502732	     18.87340526	      8.48382064	     -8.48330493	    -18.87352168	      2.33554458	     72.38481184	     47.66023688	    -72.38466355	      1.50461208	     25.87293653	     43.30599066	      0.00008140	     -0.00000785	     -0.00004522	     -0.00001206
      2.53500000	     90.00024809	      0.00038686	      9.99994101	     -0.35455977	      0.35619269	      0.29564193	    -11.53345108	      4.88488236	     -4.88545392	     11.53411704	     -2.33501165	     18.87339046	      8.48382029	     -8.48330347	    -18.87352963	      2.33555897	     72.38485784	     47.66021906	    -72.38471153	      1.50464307	     25.87294747	     43.30601766	     -0.00006960	     -0.00000796	      0.00003471	     -0.00001225
      2.54000000	     90.00025518	      0.00039350	      9.99993447	     -0.35456222	      0.35619400	      0.29564271	    -11.53344181	      4.88487531	     -4.88545506	     11.53411985	     -2.33500310	     18.87337832	      8.48381827	     -8.48330078	    -18.87352937	      2.33556610	     72.38491148	     47.66020143	    -72.38476479	      1.50467851	     25.87296017	     43.30604839	      0.00008423	     -0.00000804	     -0.00004703	     -0.00001237
      2.54500000	     90.00023442	      0.00032409	     10.00001514	     -0.35456934	      0.35619659	      0.29564636	    -11.53350795	      4.88487786	     -4.88546798	     11.53406286	     -2.33506266	     18.87340671	      8.48384411	     -8.48326010	    -18.87347681	      2.33550455	     72.38495931	     47.66026653	    -72.38488436	      1.50469957	     25.87306667	     43.30607923	     -0.00019775	     -0.00000818	      0.00010217	     -0.00001259
      2.55000000	     90.00019332	      0.00026300	     10.00004761	     -0.35457237	      0.35619546	      0.29564926	    -11.53357280	      4.88492077	     -4.88543574	     11.53400259	     -2.33514019	     18.87345604	      8.48381704	     -8.48329491	    -18.87345543	      2.33543086	     72.38495458	     47.66032275	    -72.38492664	      1.50469151	     25.87312328	     43.30609164	      0.00012630	     -0.00000823	     -0.00006965	     -0.00001266
      2.55500000	     90.00024590	      0.00035517	     10.00005415	     -0.35452908	      0.35604093	      0.29588786	    -11.53488150	      4.88544675	     -4.88602375	     11.53542804	     -2.33537888	     18.87573070	      8.48485384	     -8.48430214	    -18.87570900	      2.33575217	     72.38612048	     47.66604835	    -72.38594184	      1.50547879	     25.87809644	     43.30699374	      0.00001093	     -0.00000800	     -0.00000973	     -0.00001228
      2.56000000	     90.00026353	      0.00033341	     10.00002650	     -0.35452386	      0.35603568	      0.29587212	    -11.53498624	      4.88549134	     -4.88594391	     11.53540463	     -2.33549810	     18.87588441	      8.48477782	     -8.48448841	    -18.87581626	      2.33566594	     72.38601072	     47.66611010	    -72.38636573	      1.50558638	     25.87843739	     43.30712427	     -0.00009324	     -0.00000875	      0.00004571	     -0.00001388
